<svg width="24" height="24" viewBox="0 0 24 24" fill="none" xmlns="http://www.w3.org/2000/svg">
<path d="M14.6133 3.62934C14.864 3.23279 15.3894 3.11424 15.7861 3.36469C16.1827 3.6154 16.3012 4.14078 16.0508 4.53754L15.3779 5.602C16.1016 5.82122 16.7035 6.20153 17.1309 6.84516C17.709 7.71627 17.8486 8.91227 17.8486 10.3334V13.6674C17.8486 15.3277 17.6618 16.7068 16.7666 17.602C15.8713 18.497 14.4924 18.684 12.832 18.684C12.3627 18.684 11.9827 18.3027 11.9824 17.8334C11.9826 17.3642 12.3627 16.9838 12.832 16.9838C14.5042 16.9838 15.2096 16.7543 15.5645 16.3998C15.9191 16.0452 16.1484 15.3397 16.1484 13.6674V10.3334C16.1484 8.93113 15.9881 8.19778 15.7148 7.78559C15.5166 7.48704 15.1805 7.24882 14.417 7.1225L6.05078 20.3706C5.80006 20.7671 5.27471 20.8856 4.87793 20.6352C4.48159 20.3846 4.36325 19.86 4.61328 19.4633L5.28711 18.395C4.5667 18.1764 3.96598 17.8001 3.53906 17.1616C2.95696 16.2904 2.8184 15.0919 2.81836 13.6674V10.3344C2.81836 8.67404 3.00539 7.29516 3.90039 6.39985C4.7957 5.50454 6.17437 5.31782 7.83496 5.31782C8.30425 5.31799 8.68457 5.69809 8.68457 6.16743C8.68419 6.63643 8.30402 7.01686 7.83496 7.01703C6.16222 7.01703 5.45723 7.2473 5.10254 7.602C4.74804 7.9568 4.51758 8.66223 4.51758 10.3344V13.6674C4.51763 15.0754 4.67921 15.8074 4.95312 16.2172C5.1506 16.5123 5.48593 16.7484 6.24707 16.8754L14.6133 3.62934ZM19.082 9.06782C19.7143 9.06782 20.4293 9.15188 20.8555 9.72016C21.0587 9.9913 21.1278 10.2876 21.1562 10.5151C21.1836 10.7347 21.1816 10.9757 21.1816 11.1674V12.8344C21.1816 13.0262 21.1837 13.2674 21.1562 13.4868C21.1277 13.7142 21.0586 14.0108 20.8555 14.2817C20.4292 14.8494 19.714 14.934 19.082 14.934C18.6129 14.934 18.233 14.5534 18.2324 14.0844C18.2324 13.615 18.6126 13.2338 19.082 13.2338C19.2674 13.2338 19.3916 13.2193 19.4727 13.2065C19.4784 13.1212 19.4824 13.0075 19.4824 12.8344V11.1674C19.4824 10.9938 19.4784 10.8798 19.4727 10.7944C19.3916 10.7815 19.2674 10.767 19.082 10.767C18.6128 10.767 18.2328 10.3865 18.2324 9.91743C18.2324 9.44798 18.6126 9.06782 19.082 9.06782Z" fill="black"/>
</svg>
