<svg width="24" height="24" viewBox="0 0 24 24" fill="none" xmlns="http://www.w3.org/2000/svg">
<path fill-rule="evenodd" clip-rule="evenodd" d="M10.8086 4.73234C11.4586 4.08245 12.5293 4.06965 13.1846 4.73332L13.1855 4.73234L16.1631 7.70988L18.3086 5.56535C18.7439 5.13018 19.4683 4.64728 20.2422 4.96867C21.0149 5.28991 21.1846 6.14328 21.1846 6.75871V14.7499C21.1845 16.1929 20.6999 17.462 19.79 18.372C18.88 19.2819 17.6111 19.7665 16.168 19.7665H7.83203C5.06577 19.7565 2.81865 17.5119 2.81836 14.7421V6.75871C2.81836 6.1432 2.98778 5.28982 3.76074 4.96867C4.53468 4.64724 5.25909 5.13014 5.69434 5.56535L7.83789 7.70988L10.8076 4.73332L10.8086 4.73234ZM9.02832 8.9257L9.02734 8.92473C8.37224 9.58903 7.30064 9.57646 6.65039 8.92668L4.51758 6.79289V14.7421C4.51787 16.5718 6.00451 18.0607 7.83789 18.0673H16.168C17.2247 18.0673 18.0396 17.7181 18.5879 17.1698C19.1361 16.6216 19.4843 15.8065 19.4844 14.7499V6.79387L17.3525 8.92668L17.3516 8.9257C16.6964 9.58907 15.6256 9.57608 14.9756 8.92668L11.9971 5.94817L9.02832 8.9257Z" fill="black"/>
</svg>
