<svg width="24" height="24" viewBox="0 0 24 24" fill="none" xmlns="http://www.w3.org/2000/svg">
<path d="M14.083 2.81738C14.9405 2.81745 15.787 3.07644 16.4277 3.66699C17.0798 4.26808 17.4326 5.13332 17.4326 6.16699V14.4883L19.4844 14.4844V10.8584L18.2871 10.2607C17.8673 10.0508 17.6974 9.53997 17.9072 9.12012C18.1172 8.70031 18.628 8.52933 19.0479 8.73926L20.7139 9.57324C21.0016 9.71721 21.1835 10.0113 21.1836 10.333V15.333C21.1836 15.8016 20.8045 16.1824 20.3359 16.1836L17.4326 16.1895V19.4834H17.833C18.3022 19.4836 18.6825 19.8638 18.6826 20.333C18.6826 20.8023 18.3023 21.1824 17.833 21.1826H16.6006C16.5948 21.1827 16.5888 21.1836 16.583 21.1836H4.91602C4.91014 21.1836 4.90429 21.1827 4.89844 21.1826H3.66602C3.19669 21.1825 2.81641 20.8024 2.81641 20.333C2.81657 19.8638 3.19679 19.4835 3.66602 19.4834H4.06641V6.16699C4.06641 5.13339 4.41929 4.26807 5.07129 3.66699C5.71205 3.07644 6.55856 2.81743 7.41602 2.81738H14.083ZM7.41602 4.5166C6.89048 4.51665 6.48693 4.67442 6.22363 4.91699C5.97178 5.14926 5.76562 5.53432 5.76562 6.16699V19.4834H15.7324V6.16699C15.7324 5.5341 15.5274 5.14924 15.2754 4.91699C15.0121 4.67434 14.6086 4.51667 14.083 4.5166H7.41602ZM9.91602 11.9834C10.3854 11.9834 10.7655 12.3637 10.7656 12.833C10.7656 13.3025 10.3855 13.6826 9.91602 13.6826H7.41602C6.94669 13.6825 6.56641 13.3024 6.56641 12.833C6.56657 12.3638 6.94679 11.9835 7.41602 11.9834H9.91602ZM12.5156 5.30859C13.0705 5.30859 13.694 5.44078 14.1875 5.87109C14.7019 6.31996 14.9414 6.97426 14.9414 7.7334V8.75781C14.9414 9.51716 14.7021 10.1722 14.1875 10.6211C13.694 11.0514 13.0705 11.1836 12.5156 11.1836H8.99121C8.43636 11.1836 7.81276 11.0515 7.31934 10.6211C6.80486 10.1722 6.56641 9.51704 6.56641 8.75781V7.7334C6.56644 6.97435 6.80506 6.31995 7.31934 5.87109C7.81276 5.4407 8.43636 5.30863 8.99121 5.30859H12.5156ZM8.99121 7.00781C8.67961 7.00785 8.51481 7.08491 8.4375 7.15234C8.38125 7.20147 8.26565 7.33488 8.26562 7.7334V8.75781C8.26562 9.15631 8.38123 9.29068 8.4375 9.33984C8.51494 9.40722 8.68002 9.48336 8.99121 9.4834H12.5156C12.8267 9.4834 12.9918 9.40719 13.0693 9.33984C13.1255 9.29082 13.2412 9.1568 13.2412 8.75781V7.7334C13.2412 7.33452 13.1255 7.20136 13.0693 7.15234C12.9919 7.08494 12.8271 7.00781 12.5156 7.00781H8.99121Z" fill="black"/>
</svg>
