<svg width="24" height="24" viewBox="0 0 24 24" fill="none" xmlns="http://www.w3.org/2000/svg">
<path d="M6.42587 7.92437C8.31974 6.03089 11.3893 6.03104 13.2833 7.92437L14.5216 9.16168C15.7321 10.3722 15.732 12.3348 14.5216 13.5455C14.1896 13.8774 13.6514 13.8774 13.3194 13.5455C12.988 13.2136 12.9879 12.6761 13.3194 12.3443C13.8661 11.7976 13.8661 10.9106 13.3194 10.3638L12.0821 9.12652C10.852 7.89663 8.85711 7.89649 7.62704 9.12652L4.79891 11.9546C3.56884 13.1847 3.56901 15.1796 4.79891 16.4097L5.50594 17.1168C6.34558 17.9563 7.70736 17.9564 8.54696 17.1168C8.87879 16.7852 9.41624 16.7853 9.74813 17.1168C10.0801 17.4487 10.08 17.987 9.74813 18.3189C8.24462 19.8221 5.80723 19.8223 4.3038 18.3189L3.59676 17.6109C1.70342 15.7169 1.70326 12.6474 3.59676 10.7535L6.42587 7.92437ZM14.253 5.75347C15.7565 4.25007 18.1938 4.25022 19.6974 5.75347L20.4044 6.46051C22.2983 8.35455 22.2983 11.4249 20.4044 13.3189L17.5763 16.147C15.6823 18.041 12.6119 18.0409 10.7179 16.147L9.48055 14.9097C8.27018 13.6991 8.27001 11.7365 9.48055 10.5259C9.81243 10.1943 10.3498 10.1944 10.6817 10.5259C11.0136 10.8578 11.0134 11.3951 10.6817 11.7271C10.1351 12.2737 10.1354 13.1608 10.6817 13.7076L11.919 14.9459C13.1491 16.1757 15.144 16.1756 16.3741 14.9459L19.2032 12.1168C20.433 10.8866 20.4331 8.89174 19.2032 7.66168L18.4962 6.95465C17.6566 6.11535 16.2947 6.11534 15.4552 6.95465C15.1232 7.28659 14.585 7.28659 14.253 6.95465C13.9214 6.62277 13.9214 6.08535 14.253 5.75347Z" fill="black"/>
</svg>
