<svg width="24" height="24" viewBox="0 0 24 24" fill="none" xmlns="http://www.w3.org/2000/svg">
<path d="M7.83398 2.81738C8.30343 2.81738 8.68359 3.19755 8.68359 3.66699V5.31738H16.166C17.6092 5.31738 18.8781 5.80189 19.7881 6.71191C20.6979 7.62192 21.1826 8.89101 21.1826 10.334V16.167C21.1825 17.61 20.698 18.8791 19.7881 19.7891C18.8781 20.699 17.6091 21.1836 16.166 21.1836H7.83301C6.39003 21.1836 5.12094 20.6989 4.21094 19.7891C3.30099 18.8791 2.81649 17.61 2.81641 16.167V10.334C2.81641 8.89092 3.30103 7.62193 4.21094 6.71191C4.9378 5.98505 5.89369 5.52985 6.98438 5.37598V3.66699C6.98438 3.19755 7.36454 2.81738 7.83398 2.81738ZM7.83301 7.0166C6.77617 7.0166 5.96139 7.36576 5.41309 7.91406C4.86489 8.46237 4.51562 9.27726 4.51562 10.334V16.167C4.51571 17.2237 4.86485 18.0387 5.41309 18.5869C5.96139 19.135 6.77639 19.4834 7.83301 19.4834H16.166C17.2227 19.4834 18.0376 19.1351 18.5859 18.5869C19.1342 18.0387 19.4823 17.2237 19.4824 16.167V10.334C19.4824 9.27737 19.134 8.46236 18.5859 7.91406C18.0376 7.36576 17.2229 7.0166 16.166 7.0166H7.83301ZM9.08301 10.3174C10.7029 10.3174 12.0164 11.6301 12.0166 13.25C12.0164 14.8699 10.7029 16.1836 9.08301 16.1836C7.46324 16.1834 6.15059 14.8698 6.15039 13.25C6.15057 11.6302 7.46323 10.3176 9.08301 10.3174ZM14.501 13.6504C14.9703 13.6506 15.3506 14.0307 15.3506 14.5C15.3506 14.9693 14.9703 15.3494 14.501 15.3496H14.084C13.6145 15.3496 13.2344 14.9694 13.2344 14.5C13.2344 14.0306 13.6145 13.6504 14.084 13.6504H14.501ZM17.417 13.6504C17.8863 13.6506 18.2666 14.0307 18.2666 14.5C18.2666 14.9693 17.8863 15.3494 17.417 15.3496H17C16.5306 15.3496 16.1504 14.9694 16.1504 14.5C16.1504 14.0306 16.5306 13.6504 17 13.6504H17.417ZM9.08301 12.0166C8.40211 12.0168 7.84978 12.5691 7.84961 13.25C7.84981 13.9309 8.40213 14.4832 9.08301 14.4834C9.76404 14.4834 10.3162 13.931 10.3164 13.25C10.3162 12.569 9.76405 12.0166 9.08301 12.0166ZM17.417 10.3174C17.8864 10.3174 18.2676 10.6976 18.2676 11.167C18.2674 11.6363 17.8863 12.0166 17.417 12.0166H14.084C13.6147 12.0166 13.2346 11.6363 13.2344 11.167C13.2344 10.6976 13.6145 10.3174 14.084 10.3174H17.417Z" fill="black"/>
</svg>
