<svg width="24" height="24" viewBox="0 0 24 24" fill="none" xmlns="http://www.w3.org/2000/svg">
<path d="M12 2.15039C17.4374 2.15039 21.8496 6.56256 21.8496 12C21.8496 17.4374 17.4374 21.8496 12 21.8496C6.56256 21.8496 2.15039 17.4374 2.15039 12C2.15039 6.56256 6.56256 2.15039 12 2.15039ZM6.87012 18.3301C8.27144 19.4674 10.0562 20.1504 12 20.1504C16.4986 20.1504 20.1504 16.4986 20.1504 12C20.1504 10.0562 19.4674 8.27144 18.3301 6.87012L6.87012 18.3301ZM12 3.84961C7.50144 3.84961 3.84961 7.50144 3.84961 12C3.84961 13.9433 4.53214 15.7277 5.66895 17.1289L17.1289 5.66895C15.7277 4.53214 13.9433 3.84961 12 3.84961Z" fill="black"/>
</svg>
