<svg width="24" height="24" viewBox="0 0 24 24" fill="none" xmlns="http://www.w3.org/2000/svg">
<path fill-rule="evenodd" clip-rule="evenodd" d="M14.7011 2.81641C15.6088 2.81641 16.3854 3.02101 16.9922 3.4209C17.6061 3.82584 17.9998 4.4022 18.1728 5.0459C18.5117 6.30807 17.988 7.70797 16.9551 8.64453L16.956 8.64551L13.2646 11.999L16.9551 15.3525C17.9884 16.2891 18.5118 17.6907 18.1728 18.9531C17.9999 19.597 17.6063 20.1731 16.9922 20.5781C16.3853 20.9781 15.6089 21.1826 14.7011 21.1826H9.30076C8.3933 21.1825 7.61736 20.9781 7.01072 20.5781C6.39669 20.1731 6.00201 19.5969 5.82908 18.9531C5.49025 17.6909 6.01377 16.2891 7.04685 15.3525L10.7363 11.999L7.04587 8.64551C6.01377 7.709 5.49043 6.30753 5.82908 5.0459C6.00205 4.40208 6.39664 3.82589 7.01072 3.4209C7.61738 3.02092 8.39325 2.81655 9.30076 2.81641H14.7011ZM8.18943 16.6113L8.18845 16.6123C7.71162 17.0446 7.47492 17.5704 7.43455 18.0283L10.7822 16.542C11.5577 16.1974 12.4432 16.1974 13.2187 16.542L16.5664 18.0293C16.5262 17.5712 16.2908 17.0449 15.8135 16.6123L15.8125 16.6113L12.001 13.1475L8.18943 16.6113ZM9.30076 4.51562C8.64259 4.51577 8.21295 4.66401 7.94626 4.83984C7.6872 5.01076 7.53832 5.23472 7.47068 5.48633C7.32863 6.01533 7.53081 6.78917 8.18845 7.38574L8.18943 7.38672L12.001 10.8496L15.8125 7.38672L15.8135 7.38574C16.4717 6.78906 16.6734 6.01551 16.5312 5.48633C16.4635 5.23473 16.3148 5.01072 16.0556 4.83984C15.7888 4.66415 15.3592 4.51563 14.7011 4.51562H9.30076Z" fill="black"/>
</svg>
