<svg width="24" height="24" viewBox="0 0 24 24" fill="none" xmlns="http://www.w3.org/2000/svg">
<path d="M11.999 2.81738C17.0517 2.81738 21.1824 6.94737 21.1826 12C21.1825 17.0526 17.0517 21.1836 11.999 21.1836C10.4753 21.1835 8.95252 20.7937 7.63965 20.082L5.58203 20.6699C4.20579 21.0628 2.92423 19.811 3.28418 18.4258L3.84473 16.2656C3.21194 14.9841 2.81646 13.5374 2.81641 12C2.81658 6.94748 6.9465 2.81756 11.999 2.81738ZM11.999 4.5166C7.88539 4.51678 4.5158 7.88636 4.51562 12C4.51568 13.3405 4.88825 14.6213 5.49902 15.7666C5.59931 15.9548 5.6259 16.1745 5.57227 16.3809L4.92871 18.8535C4.89984 18.9656 5.00383 19.0668 5.11523 19.0352L7.51562 18.3496C7.74184 18.285 7.98479 18.3174 8.18652 18.4385C9.30278 19.1082 10.6515 19.4833 11.999 19.4834C16.1128 19.4834 19.4823 16.1138 19.4824 12C19.4822 7.88626 16.1128 4.5166 11.999 4.5166ZM9.76758 7.40918C9.93717 7.4274 10.1078 7.47333 10.2695 7.55078L10.2686 7.55273C10.4855 7.65485 10.689 7.81092 10.8467 8.03516L11.7188 9.26172C11.8128 9.39277 11.8925 9.53148 11.9551 9.68066H11.957C12.024 9.83678 12.0781 10.0311 12.0781 10.2451C12.0781 10.4964 12.0047 10.7282 11.8877 10.9287L11.8887 10.9297C11.8871 10.9325 11.8844 10.9347 11.8828 10.9375C11.8798 10.9426 11.8781 10.949 11.875 10.9541L11.873 10.9531C11.7992 11.0788 11.7112 11.1934 11.6172 11.2959C11.6224 11.3022 11.6274 11.309 11.6328 11.3154C11.7897 11.4963 11.9541 11.6763 12.1299 11.8555C12.3233 12.0449 12.4999 12.211 12.6748 12.3594L12.6924 12.373C12.7924 12.2815 12.9087 12.1918 13.04 12.1172C13.0468 12.1131 13.0538 12.1095 13.0605 12.1055C13.07 12.1003 13.0793 12.0948 13.0889 12.0898C13.2808 11.9827 13.501 11.9151 13.748 11.915L13.8926 11.9229C13.9874 11.9329 14.0794 11.952 14.168 11.9795L14.2988 12.0273L14.5186 12.1338L14.7178 12.2568L14.7314 12.2666L15.9668 13.1416L16.1162 13.2598C16.2356 13.3658 16.3408 13.4931 16.4219 13.6445L16.4678 13.7383L16.4736 13.752L16.4785 13.7656C16.5472 13.937 16.5996 14.1387 16.5996 14.374C16.5996 14.6365 16.5413 14.8989 16.4248 15.1455C16.3272 15.352 16.1986 15.5509 16.0303 15.7363C15.7723 16.0202 15.468 16.2445 15.1104 16.3916L15.1084 16.3926L15.1064 16.3945L15.1055 16.3936C14.7744 16.5305 14.4212 16.5996 14.0527 16.5996C13.5355 16.5996 13.0123 16.4788 12.4951 16.2588C11.9981 16.0473 11.5106 15.7658 11.0361 15.4209C10.5693 15.0804 10.1271 14.7034 9.70703 14.2881L9.70117 14.2822C9.28529 13.8629 8.90726 13.4215 8.56934 12.958L8.56641 12.9541C8.22865 12.4852 7.94735 12.0031 7.73828 11.5117L7.7373 11.5088C7.5212 10.9963 7.40039 10.4749 7.40039 9.95215C7.40043 9.59656 7.46283 9.24498 7.5957 8.91309C7.7346 8.56249 7.95116 8.25018 8.23438 7.9834L8.23535 7.98438C8.60207 7.62924 9.06478 7.40039 9.59863 7.40039L9.76758 7.40918Z" fill="black"/>
</svg>
